<svg id="Слой_1" data-name="Слой 1" xmlns="http://www.w3.org/2000/svg" viewBox="0 0 150 190"><defs><style>.cls-1{fill-rule:evenodd;}</style></defs><title>Монтажная область 47</title><path class="cls-1" d="M123.62,132.8a6,6,0,0,1-4.16,6.28l-1.94,8.16H98.21l-2-8c-3.17-1.07-4.54-3.8-4.62-7.33-.36-14.77.16-17.51.18-20.57,0-3.92,1.17-6.33,3.62-7.35l1.9-8.65h3.27L101,76.76l-48.85-.21.1,4.17-5.4-.38c0-4.35.06-7.38.11-8.23.39-6.33,3-9.25,8.53-9,4.42.18,37.05-.39,42.71,0,6.45.4,8.5,4.74,8.27,10.61-.06,1.38-.09,10.46-.12,21.73h11.43l2,8.61c2.59,1.17,3.68,3.79,3.85,7.11h2.76l.16,10.56h-3.11C123.43,124.47,123.47,128.07,123.62,132.8ZM119.27,114c0-3.43-1.39-5.9-5.17-5.92-3.31,0-10.38.08-13,.12-3.21,0-4.66,1.84-4.68,5.54,0,2.15-.38,5.61-.13,16,.08,3.27,1.72,5.57,5.77,5.5s6.39.16,10.63.1,6.62-1.69,6.52-5C118.93,120.26,119.31,115.84,119.27,114ZM55.71,85c4.81,0,6.52,3.17,6.59,7.54,0,1.83-.23,21.37-.19,36.31l24.28.17c0,1.05,0,2.19,0,3.43,0,4.67,1.71,8.37,5.53,10.16l1.36,4.78c-16.35,0-58.13,0-59,0-5.16.08-7.26-2.85-7.36-7-.32-13.19.15-45.41.17-48.15,0-4.72,1.88-7,6-7.06C36.33,85.09,51.5,85,55.71,85Zm21,57.36c5.59.22,5.8-8.71,0-8.94S70.13,142.08,76.75,142.35ZM50.11,96.52c-2.12,0-9.78.12-10.86.12C36.72,96.64,36,94,36,92.43a22.5,22.5,0,0,0-3.76.19l.94,48.63,23-.06.23-48.93a30,30,0,0,0-3.68,0C52.81,94,52.23,96.52,50.11,96.52Z"/></svg>